<?xml version="1.0" encoding="utf-8"?>
<svg xmlns="http://www.w3.org/2000/svg" viewBox="0 0 1024 1024">
<path fill="#FFFFFF" d="M512 64C264.6 64 64 264.6 64 512 64 759.4 264.6 960 512 960 759.4 960 960 759.4 960 512 960 264.6 759.4 64 512 64L512 64 512 64ZM512 900.3C297.9 900.3 123.7 726.1 123.7 512 123.7 297.9 297.9 123.7 512 123.7 726.1 123.7 900.3 297.9 900.3 512 900.3 726.1 726.1 900.3 512 900.3L512 900.3 512 900.3ZM556.8 511 695.2 374.2C707.8 361.8 707.9 341.5 695.5 328.9 683.1 316.4 662.8 316.3 650.2 328.7L511.7 465.7 375.2 328.8C362.7 316.3 342.5 316.3 330 328.8 317.5 341.3 317.4 361.5 329.9 374L466.2 510.7 328.8 646.6C316.2 659 316.1 679.3 328.5 691.8 334.8 698.2 343 701.3 351.3 701.3 359.4 701.3 367.5 698.2 373.8 692.1L511.3 556 650 695.2C656.3 701.4 664.5 704.6 672.7 704.6 680.9 704.6 689 701.4 695.3 695.2 707.8 682.8 707.8 662.5 695.3 650L556.8 511 556.8 511Z"/>
</svg>